<svg width="20" height="20" viewBox="0 0 20 20" fill="none" xmlns="http://www.w3.org/2000/svg">
<path d="M17.5 4.99998H16.6667V4.16665C16.6667 3.94563 16.5789 3.73367 16.4226 3.57739C16.2663 3.42111 16.0544 3.33331 15.8333 3.33331C15.6123 3.33331 15.4004 3.42111 15.2441 3.57739C15.0878 3.73367 15 3.94563 15 4.16665V4.99998H14.1667C13.9457 4.99998 13.7337 5.08778 13.5774 5.24406C13.4211 5.40034 13.3333 5.6123 13.3333 5.83331C13.3333 6.05433 13.4211 6.26629 13.5774 6.42257C13.7337 6.57885 13.9457 6.66665 14.1667 6.66665H15V7.49998C15 7.72099 15.0878 7.93295 15.2441 8.08923C15.4004 8.24551 15.6123 8.33331 15.8333 8.33331C16.0544 8.33331 16.2663 8.24551 16.4226 8.08923C16.5789 7.93295 16.6667 7.72099 16.6667 7.49998V6.66665H17.5C17.721 6.66665 17.933 6.57885 18.0893 6.42257C18.2455 6.26629 18.3333 6.05433 18.3333 5.83331C18.3333 5.6123 18.2455 5.40034 18.0893 5.24406C17.933 5.08778 17.721 4.99998 17.5 4.99998Z" fill="black"/>
<path d="M8.33333 9.16667C8.9926 9.16667 9.63707 8.97117 10.1852 8.6049C10.7334 8.23863 11.1606 7.71803 11.4129 7.10895C11.6652 6.49986 11.7312 5.82964 11.6026 5.18303C11.474 4.53643 11.1565 3.94249 10.6904 3.47631C10.2242 3.01014 9.63024 2.69267 8.98363 2.56405C8.33703 2.43543 7.66681 2.50144 7.05772 2.75374C6.44863 3.00603 5.92804 3.43327 5.56177 3.98143C5.1955 4.5296 5 5.17406 5 5.83333C5 6.71739 5.35119 7.56524 5.97631 8.19036C6.60143 8.81548 7.44928 9.16667 8.33333 9.16667ZM8.33333 4.16667C8.66297 4.16667 8.9852 4.26442 9.25928 4.44755C9.53337 4.63069 9.74699 4.89099 9.87313 5.19553C9.99928 5.50007 10.0323 5.83518 9.96798 6.15849C9.90367 6.48179 9.74493 6.77876 9.51184 7.01185C9.27876 7.24493 8.98179 7.40367 8.65848 7.46798C8.33518 7.53229 8.00007 7.49928 7.69553 7.37313C7.39098 7.24699 7.13069 7.03337 6.94755 6.75928C6.76442 6.4852 6.66667 6.16297 6.66667 5.83333C6.66667 5.39131 6.84226 4.96738 7.15482 4.65482C7.46738 4.34226 7.89131 4.16667 8.33333 4.16667Z" fill="black"/>
<path d="M8.33333 10.8333C6.78624 10.8333 5.30251 11.4479 4.20854 12.5419C3.11458 13.6358 2.5 15.1195 2.5 16.6666C2.5 16.8877 2.5878 17.0996 2.74408 17.2559C2.90036 17.4122 3.11232 17.5 3.33333 17.5C3.55435 17.5 3.76631 17.4122 3.92259 17.2559C4.07887 17.0996 4.16667 16.8877 4.16667 16.6666C4.16667 15.5616 4.60565 14.5018 5.38705 13.7204C6.16846 12.939 7.22826 12.5 8.33333 12.5C9.4384 12.5 10.4982 12.939 11.2796 13.7204C12.061 14.5018 12.5 15.5616 12.5 16.6666C12.5 16.8877 12.5878 17.0996 12.7441 17.2559C12.9004 17.4122 13.1123 17.5 13.3333 17.5C13.5543 17.5 13.7663 17.4122 13.9226 17.2559C14.0789 17.0996 14.1667 16.8877 14.1667 16.6666C14.1667 15.1195 13.5521 13.6358 12.4581 12.5419C11.3642 11.4479 9.88043 10.8333 8.33333 10.8333Z" fill="black"/>
</svg>
