<svg width="20" height="20" viewBox="0 0 20 20" fill="none" xmlns="http://www.w3.org/2000/svg">
<path d="M17.325 9.45L14.5417 3.88334C14.3338 3.46697 14.0139 3.11688 13.6178 2.87249C13.2218 2.62809 12.7654 2.49909 12.3 2.5H7.70001C7.23464 2.49909 6.77825 2.62809 6.38221 2.87249C5.98617 3.11688 5.66621 3.46697 5.45835 3.88334L2.67501 9.45C2.55893 9.68291 2.49899 9.93977 2.50001 10.2V15C2.50001 15.663 2.7634 16.2989 3.23225 16.7678C3.70109 17.2366 4.33697 17.5 5.00001 17.5H15C15.6631 17.5 16.2989 17.2366 16.7678 16.7678C17.2366 16.2989 17.5 15.663 17.5 15V10.2C17.501 9.93977 17.4411 9.68291 17.325 9.45ZM6.95001 4.625C7.0199 4.48631 7.12715 4.3699 7.25967 4.28892C7.39219 4.20793 7.54471 4.16559 7.70001 4.16667H12.3C12.4553 4.16559 12.6078 4.20793 12.7404 4.28892C12.8729 4.3699 12.9801 4.48631 13.05 4.625L15.3167 9.16667H4.68335L6.95001 4.625ZM15 15.8333H5.00001C4.779 15.8333 4.56704 15.7455 4.41076 15.5893C4.25448 15.433 4.16668 15.221 4.16668 15V10.8333H15.8333V15C15.8333 15.221 15.7455 15.433 15.5893 15.5893C15.433 15.7455 15.221 15.8333 15 15.8333Z" fill="black"/>
<path d="M13.3334 12.5H10C9.77901 12.5 9.56705 12.5878 9.41076 12.7441C9.25448 12.9004 9.16669 13.1123 9.16669 13.3333C9.16669 13.5543 9.25448 13.7663 9.41076 13.9226C9.56705 14.0789 9.77901 14.1667 10 14.1667H13.3334C13.5544 14.1667 13.7663 14.0789 13.9226 13.9226C14.0789 13.7663 14.1667 13.5543 14.1667 13.3333C14.1667 13.1123 14.0789 12.9004 13.9226 12.7441C13.7663 12.5878 13.5544 12.5 13.3334 12.5Z" fill="black"/>
<path d="M6.66668 14.1667C7.12691 14.1667 7.50001 13.7936 7.50001 13.3333C7.50001 12.8731 7.12691 12.5 6.66668 12.5C6.20644 12.5 5.83334 12.8731 5.83334 13.3333C5.83334 13.7936 6.20644 14.1667 6.66668 14.1667Z" fill="black"/>
</svg>
